<?xml version="1.0" encoding="UTF-8"?><svg id="a" xmlns="http://www.w3.org/2000/svg" viewBox="0 0 388.17 368.61"><defs><style>.b,.c,.d,.e,.f,.g,.h{stroke:#f5f9ef;}.b,.c,.d,.e,.f,.h{stroke-linejoin:round;stroke-width:15px;}.b,.c,.g{fill:none;}.c{stroke-linecap:round;}.d,.e,.f,.i{opacity:.4;}.d,.h{fill:#7a7a7b;}.j{fill:rgba(31,168,77,.31);opacity:.8;}.e{fill:#fff;}.f{fill:#56b0ad;}.g{stroke-miterlimit:10;stroke-width:10px;}.h{opacity:.1;}</style></defs><rect class="j" width="388.17" height="368.61" rx="40.3" ry="40.3"/><polyline class="h" points="119.48 310.7 119.48 75.09 259.22 75.09 259.22 310.7"/><polyline class="b" points="119.48 310.7 119.48 75.09 263.35 75.09 263.35 310.7"/><polyline class="e" points="88.9 310.7 88.9 171.45 119.48 171.45 119.48 310.7"/><polyline class="f" points="88.9 310.7 88.9 171.45 115.67 171.45 115.67 310.7"/><polyline class="b" points="88.9 310.7 88.9 171.45 119.48 171.45 119.48 310.7"/><polyline class="e" points="263.35 310.7 263.35 114.01 293.93 114.01 293.93 310.7"/><polyline class="f" points="263.35 310.7 263.35 114.01 289.8 114.01 289.8 310.7"/><polyline class="b" points="263.35 310.7 263.35 114.01 293.93 114.01 293.93 310.7"/><line class="c" x1="325.2" y1="310.7" x2="57.62" y2="310.7"/><g><line class="c" x1="147.16" y1="114.01" x2="148.22" y2="114.01"/><line class="c" x1="147.16" y1="166.83" x2="148.22" y2="166.83"/><line class="c" x1="147.16" y1="219.65" x2="148.22" y2="219.65"/><line class="c" x1="147.16" y1="272.47" x2="148.22" y2="272.47"/></g><g><line class="c" x1="187.29" y1="114.01" x2="214.48" y2="114.01"/><line class="c" x1="187.29" y1="166.83" x2="214.48" y2="166.83"/><line class="c" x1="187.29" y1="219.65" x2="214.48" y2="219.65"/><line class="c" x1="187.29" y1="272.47" x2="214.48" y2="272.47"/></g><line class="c" x1="66.66" y1="310.7" x2="66.66" y2="290.54"/><line class="c" x1="316.17" y1="310.7" x2="316.17" y2="290.54"/><g class="i"><circle class="d" cx="66.66" cy="281.51" r="9.04"/><circle class="d" cx="66.66" cy="265.68" r="6.39"/><circle class="d" cx="316.17" cy="281.51" r="9.04"/></g><g><circle class="g" cx="66.66" cy="281.51" r="9.04"/><circle class="g" cx="66.66" cy="265.68" r="6.39"/><circle class="g" cx="316.17" cy="281.51" r="9.04"/></g></svg>